<svg xmlns="http://www.w3.org/2000/svg" viewBox="0 0 48 48">
  <defs>
    <linearGradient id="sharepoint-gradient" x1="4" y1="12" x2="27" y2="38" gradientUnits="userSpaceOnUse">
      <stop offset="0" stop-color="#37c6d0"/>
      <stop offset=".55" stop-color="#038387"/>
      <stop offset="1" stop-color="#006b6f"/>
    </linearGradient>
  </defs>
  <circle cx="31" cy="15" r="10" fill="#37c6d0"/>
  <circle cx="35" cy="30" r="11" fill="#038387"/>
  <circle cx="22" cy="34" r="9" fill="#006b6f"/>
  <rect x="4" y="11" width="24" height="27" rx="2.5" fill="url(#sharepoint-gradient)"/>
  <path d="M18.8 18.5c-1.2-.7-2.5-1.1-3.9-1.1-1.5 0-2.6.6-2.6 1.7 0 1 .7 1.5 3 2.3 3.2 1 4.7 2.4 4.7 5 0 3.2-2.5 5.3-6.4 5.3-2.1 0-4.2-.6-5.6-1.6l1.5-3.1c1.2.8 2.7 1.4 4.2 1.4 1.7 0 2.7-.6 2.7-1.8 0-1.1-.8-1.7-3.2-2.5-3-1-4.5-2.3-4.5-4.8 0-3.1 2.5-5.1 6.2-5.1 2 0 3.8.5 5.2 1.3z" fill="#fff"/>
</svg>
